<svg height='300px' width='300px'  fill="#FFFFFF" xmlns="http://www.w3.org/2000/svg" xmlns:xlink="http://www.w3.org/1999/xlink" viewBox="0 0 60 60" version="1.1" x="0px" y="0px"><title>012 - Task Deadline</title><desc>Created with Sketch.</desc><g stroke="none" stroke-width="1" fill="none" fill-rule="evenodd"><g transform="translate(0.000000, -1.000000)" fill="#FFFFFF" fill-rule="nonzero"><path d="M22,8 C22.2660353,8.00270108 22.5219616,7.89821183 22.7100867,7.71008674 C22.8982118,7.52196165 23.0027011,7.26603534 23,7 C23.0034547,6.86881668 22.9760524,6.73865551 22.92,6.62 C22.8692709,6.49886071 22.7982527,6.38726069 22.71,6.29 C22.3089802,5.91998159 21.6910198,5.91998159 21.29,6.29 C21.2017473,6.38726069 21.1307291,6.49886071 21.08,6.62 C21.028759,6.74022231 21.00158,6.86932274 21,7 C20.9972989,7.26603534 21.1017882,7.52196165 21.2899133,7.71008674 C21.4780384,7.89821183 21.7339647,8.00270108 22,8 Z"></path><path d="M4,61 L40,61 C42.209139,61 44,59.209139 44,57 L44,55 C44,54.4477153 43.5522847,54 43,54 C42.4477153,54 42,54.4477153 42,55 L42,57 C42,58.1045695 41.1045695,59 40,59 L4,59 C2.8954305,59 2,58.1045695 2,57 L2,13 C2,11.8954305 2.8954305,11 4,11 L10,11 L10,13 L6,13 C4.8954305,13 4,13.8954305 4,15 L4,55 C4,56.1045695 4.8954305,57 6,57 L38,57 C39.1045695,57 40,56.1045695 40,55 L40,54 C40,53.4477153 39.5522847,53 39,53 C38.4477153,53 38,53.4477153 38,54 L38,55 L6,55 L6,15 L10.184,15 C10.6062546,16.1943509 11.7332146,16.9947486 13,17 L31,17 C32.2667854,16.9947486 33.3937454,16.1943509 33.816,15 L38,15 L38,16 C38,16.5522847 38.4477153,17 39,17 C39.5522847,17 40,16.5522847 40,16 L40,15 C40,13.8954305 39.1045695,13 38,13 L34,13 L34,11 L40,11 C41.1045695,11 42,11.8954305 42,13 L42,15 C42,15.5522847 42.4477153,16 43,16 C43.5522847,16 44,15.5522847 44,15 L44,13 C44,10.790861 42.209139,9 40,9 L33.816,9 C33.3937454,7.80564913 32.2667854,7.00525139 31,7 L28.929,7 C28.4343506,3.55349489 25.4818207,0.994464177 22,0.994464177 C18.5181793,0.994464177 15.5656494,3.55349489 15.071,7 L13,7 C11.7332146,7.00525139 10.6062546,7.80564913 10.184,9 L4,9 C1.790861,9 2.705415e-16,10.790861 0,13 L0,57 C2.705415e-16,59.209139 1.790861,61 4,61 Z M13,9 L16,9 C16.5522847,9 17,8.55228475 17,8 C17,5.23857625 19.2385763,3 22,3 C24.7614237,3 27,5.23857625 27,8 C27,8.55228475 27.4477153,9 28,9 L31,9 C31.5522847,9 32,9.44771525 32,10 L32,14 C32,14.5522847 31.5522847,15 31,15 L13,15 C12.4477153,15 12,14.5522847 12,14 L12,10 C12,9.44771525 12.4477153,9 13,9 Z"></path><path d="M25,23 C25,22.4477153 24.5522847,22 24,22 L11,22 C10.4477153,22 10,22.4477153 10,23 C10,23.5522847 10.4477153,24 11,24 L24,24 C24.5522847,24 25,23.5522847 25,23 Z"></path><path d="M22,27 L11,27 C10.4477153,27 10,27.4477153 10,28 C10,28.5522847 10.4477153,29 11,29 L22,29 C22.5522847,29 23,28.5522847 23,28 C23,27.4477153 22.5522847,27 22,27 Z"></path><path d="M11,34 L21,34 C21.5522847,34 22,33.5522847 22,33 C22,32.4477153 21.5522847,32 21,32 L11,32 C10.4477153,32 10,32.4477153 10,33 C10,33.5522847 10.4477153,34 11,34 Z"></path><path d="M11,39 L21,39 C21.5522847,39 22,38.5522847 22,38 C22,37.4477153 21.5522847,37 21,37 L11,37 C10.4477153,37 10,37.4477153 10,38 C10,38.5522847 10.4477153,39 11,39 Z"></path><path d="M23,43 C23,42.4477153 22.5522847,42 22,42 L11,42 C10.4477153,42 10,42.4477153 10,43 C10,43.5522847 10.4477153,44 11,44 L22,44 C22.5522847,44 23,43.5522847 23,43 Z"></path><path d="M11,47 C10.4477153,47 10,47.4477153 10,48 C10,48.5522847 10.4477153,49 11,49 L14,49 C14.5522847,49 15,48.5522847 15,48 C15,47.4477153 14.5522847,47 14,47 L11,47 Z"></path><path d="M43,18 C34.8897472,18.0001762 27.9090245,23.7293519 26.3269529,31.6838003 C24.7448812,39.6382488 29.0020882,47.6025523 36.4950424,50.7060727 C43.9879966,53.8095931 52.6298123,51.1879595 57.135513,44.4444543 C61.6412137,37.7009491 60.7559029,28.7137267 55.021,22.979 C51.8395195,19.7808705 47.511065,17.9880601 43,18 Z M53.606,45.606 C48.5455525,50.6658734 40.615536,51.446434 34.6656657,47.470319 C28.7157954,43.4942039 26.4032083,35.8688267 29.1422002,29.257596 C31.8811921,22.6463653 38.9089084,18.890618 45.9274488,20.287235 C52.9459891,21.683852 58.0005741,27.8438525 58,35 C58.0107518,38.9803202 56.4284985,42.7994778 53.606,45.606 Z"></path><path d="M45,34 L44,34 L44,30 C44,29.4477153 43.5522847,29 43,29 C42.4477153,29 42,29.4477153 42,30 L42,35 C42,35.5522847 42.4477153,36 43,36 L45,36 C45.5522847,36 46,35.5522847 46,35 C46,34.4477153 45.5522847,34 45,34 Z"></path><path d="M54.227,28.464 C53.104407,26.5133895 51.4856105,24.894593 49.535,23.772 C49.521,23.764 49.514,23.75 49.5,23.742 C49.486,23.734 49.475,23.735 49.463,23.729 C45.4630538,21.4236719 40.5379462,21.4236719 36.538,23.729 C36.526,23.735 36.512,23.735 36.5,23.742 C36.488,23.749 36.478,23.764 36.464,23.773 C34.5134063,24.8952758 32.89486,26.5141671 31.773,28.465 C31.764,28.479 31.75,28.486 31.742,28.5 C31.734,28.514 31.735,28.525 31.729,28.537 C29.4236719,32.5369462 29.4236719,37.4620538 31.729,41.462 C31.735,41.474 31.735,41.488 31.742,41.5 C31.7558797,41.5201771 31.7709043,41.5395422 31.787,41.558 C32.9081982,43.4992114 34.5218724,45.110126 36.465,46.228 C36.479,46.236 36.486,46.25 36.5,46.258 C36.514,46.266 36.535,46.271 36.552,46.28 C40.544107,48.5732317 45.453893,48.5732317 49.446,46.28 C49.4644056,46.2737046 49.4824352,46.2663592 49.5,46.258 C49.514,46.25 49.522,46.236 49.536,46.227 C51.4791276,45.109126 53.0928018,43.4982114 54.214,41.557 C54.228,41.537 54.246,41.521 54.258,41.5 C54.27,41.479 54.265,41.475 54.271,41.463 C56.5763281,37.4630538 56.5763281,32.5379462 54.271,28.538 C54.265,28.526 54.265,28.512 54.258,28.5 C54.251,28.488 54.236,28.478 54.227,28.464 Z M49.339,43.98 L48.866,43.16 C48.6886384,42.8480492 48.3577268,42.6550468 47.9988817,42.6542579 C47.6400366,42.653469 47.3082796,42.8450146 47.1295481,43.1561826 C46.9508167,43.4673505 46.9525156,43.8504296 47.134,44.16 L47.608,44.981 C46.4701228,45.5095745 45.2495298,45.8377273 44,45.951 L44,45 C44,44.4477153 43.5522847,44 43,44 C42.4477153,44 42,44.4477153 42,45 L42,45.951 C40.7504702,45.8377273 39.5298772,45.5095745 38.392,44.981 L38.866,44.16 C39.0474844,43.8504296 39.0491833,43.4673505 38.8704519,43.1561826 C38.6917204,42.8450146 38.3599634,42.653469 38.0011183,42.6542579 C37.6422732,42.6550468 37.3113616,42.8480492 37.134,43.16 L36.66,43.98 C36.1477739,43.6211502 35.6667348,43.2197268 35.222,42.78 C34.7818015,42.3353355 34.3803455,41.8539228 34.022,41.341 L34.842,40.868 C35.3162136,40.5899942 35.4771286,39.981353 35.2022745,39.5053057 C34.9274205,39.0292584 34.31986,38.8643097 33.842,39.136 L33.021,39.61 C32.4915135,38.4716255 32.1626777,37.2503319 32.049,36 L33,36 C33.5522847,36 34,35.5522847 34,35 C34,34.4477153 33.5522847,34 33,34 L32.049,34 C32.1622727,32.7504702 32.4904255,31.5298772 33.019,30.392 L33.84,30.866 C34.1495704,31.0474844 34.5326495,31.0491833 34.8438174,30.8704519 C35.1549854,30.6917204 35.346531,30.3599634 35.3457421,30.0011183 C35.3449532,29.6422732 35.1519508,29.3113616 34.84,29.134 L34.02,28.66 C34.3788498,28.1477739 34.7802732,27.6667348 35.22,27.222 C35.6646645,26.7818015 36.1460772,26.3803455 36.659,26.022 L37.132,26.842 C37.4100058,27.3162136 38.018647,27.4771286 38.4946943,27.2022745 C38.9707416,26.9274205 39.1356903,26.31986 38.864,25.842 L38.39,25.021 C39.5283745,24.4915135 40.7496681,24.1626777 42,24.049 L42,25 C42,25.5522847 42.4477153,26 43,26 C43.5522847,26 44,25.5522847 44,25 L44,24.049 C45.2495298,24.1622727 46.4701228,24.4904255 47.608,25.019 L47.134,25.84 C46.9525156,26.1495704 46.9508167,26.5326495 47.1295481,26.8438174 C47.3082796,27.1549854 47.6400366,27.346531 47.9988817,27.3457421 C48.3577268,27.3449532 48.6886384,27.1519508 48.866,26.84 L49.34,26.02 C49.8522261,26.3788498 50.3332652,26.7802732 50.778,27.22 C51.2181985,27.6646645 51.6196545,28.1460772 51.978,28.659 L51.158,29.132 C50.8460492,29.3093616 50.6530468,29.6402732 50.6522579,29.9991183 C50.651469,30.3579634 50.8430146,30.6897204 51.1541826,30.8684519 C51.4653505,31.0471833 51.8484296,31.0454844 52.158,30.864 L52.979,30.39 C53.5084865,31.5283745 53.8373223,32.7496681 53.951,34 L53,34 C52.4477153,34 52,34.4477153 52,35 C52,35.5522847 52.4477153,36 53,36 L53.951,36 C53.8377273,37.2495298 53.5095745,38.4701228 52.981,39.608 L52.16,39.134 C51.8504296,38.9525156 51.4673505,38.9508167 51.1561826,39.1295481 C50.8450146,39.3082796 50.653469,39.6400366 50.6542579,39.9988817 C50.6550468,40.3577268 50.8480492,40.6886384 51.16,40.866 L51.98,41.34 C51.6211502,41.8522261 51.2197268,42.3332652 50.78,42.778 C50.3347811,43.2189805 49.8526941,43.62111 49.339,43.98 Z"></path></g></g></svg>