<svg height='300px' width='300px'  fill="#FFFFFF" xmlns="http://www.w3.org/2000/svg" viewBox="0 0 88.5 85" x="0px" y="0px"><title>Asset 2</title><g data-name="Layer 2"><g data-name="Layer 1"><path d="M50.73,63H56V51H50.73a23.26,23.26,0,0,0-2.42-5.82L52,41.44,43.56,33l-3.73,3.73A23.25,23.25,0,0,0,34,34.27V29H22v5.27a23.25,23.25,0,0,0-5.82,2.42L12.44,33,4,41.44l3.73,3.73A23.23,23.23,0,0,0,5.27,51H0V63H5.27a23.25,23.25,0,0,0,2.42,5.82L4,72.56,12.44,81l3.73-3.73A23.25,23.25,0,0,0,22,79.73V85H34V79.73a23.25,23.25,0,0,0,5.82-2.42L43.56,81,52,72.56l-3.73-3.73A23.26,23.26,0,0,0,50.73,63ZM47.8,72.56,43.56,76.8l-3.31-3.32-1,.67a20.31,20.31,0,0,1-7,2.92L31,77.32V82H25V77.32l-1.19-.25a20.31,20.31,0,0,1-7-2.92l-1-.67L12.44,76.8,8.2,72.56l3.31-3.31-.67-1a20.29,20.29,0,0,1-2.92-7L7.68,60H3V54H7.68l.25-1.2a20.29,20.29,0,0,1,2.92-7l.67-1L8.2,41.44l4.24-4.24,3.31,3.31,1-.67a20.29,20.29,0,0,1,7-2.92L25,36.68V32h6v4.68l1.19.25a20.29,20.29,0,0,1,7,2.92l1,.67,3.31-3.31,4.24,4.24-3.31,3.31.67,1a20.32,20.32,0,0,1,2.92,7L48.32,54H53v6H48.32l-.25,1.19a20.32,20.32,0,0,1-2.92,7l-.67,1Z"></path><path d="M28,40A17,17,0,1,0,45,57,17,17,0,0,0,28,40Zm0,31A14,14,0,1,1,42,57,14,14,0,0,1,28,71Z"></path><path d="M60.5,3a23.5,23.5,0,0,1,0,47v3A26.5,26.5,0,1,0,34,26.5h3A23.53,23.53,0,0,1,60.5,3Z"></path><path d="M59,10.5V22.8A4,4,0,1,0,64.2,28H76.5V25H64.2A4,4,0,0,0,62,22.8V10.5Z"></path><rect x="59.5" y="63.5" width="29" height="3"></rect><rect x="53.5" y="71.5" width="23.5" height="3"></rect><rect x="80.5" y="71.5" width="7.5" height="3"></rect></g></g></svg>