<?xml version="1.0" encoding="UTF-8"?>
<!DOCTYPE svg PUBLIC "-//W3C//DTD SVG 1.1//EN" "http://www.w3.org/Graphics/SVG/1.1/DTD/svg11.dtd">
<!-- Creator: CorelDRAW -->
<svg xmlns="http://www.w3.org/2000/svg" xml:space="preserve" width="215.9mm" height="279.4mm" style="shape-rendering:geometricPrecision; text-rendering:geometricPrecision; image-rendering:optimizeQuality; fill-rule:evenodd; clip-rule:evenodd"
viewBox="0 0 215.9 279.4">
 <defs>
  <style type="text/css">
   <![CDATA[
    .fil0 {fill:black}
   ]]>
  </style>
 </defs>
 <g id="Layer_x0020_1">
  <metadata id="CorelCorpID_0Corel-Layer"/>
  <g id="_157924040">
   <path id="_157924064" class="fil0" d="M134.815 160.665l3.422 0 48.2245 0 3.3867 0 0 -55.0331 -55.0332 0 0 55.0331zm47.9776 -43.9912c-0.3175,0.3528 -0.7408,0.5292 -1.2347,0.5292l-38.5584 0c-0.4939,0 -0.9173,-0.1764 -1.27,-0.5292 -0.3175,-0.3528 -0.4939,-0.7408 -0.4939,-1.2347 0,-0.4586 0.1764,-0.9172 0.4939,-1.27 0.3527,-0.3175 0.7761,-0.4939 1.27,-0.4939l38.5584 0c0.4939,0 0.9172,0.1764 1.2347,0.4939 0.3528,0.3528 0.5292,0.8114 0.5292,1.27 0,0.4939 -0.1764,0.8819 -0.5292,1.2347zm0 22.5777c-0.3175,0.3528 -0.7408,0.5292 -1.2347,0.5292l-38.5584 0c-0.4939,0 -0.9173,-0.1764 -1.27,-0.5292 -0.3175,-0.3528 -0.4939,-0.7408 -0.4939,-1.2347 0,-0.4586 0.1764,-0.9173 0.4939,-1.27 0.3527,-0.3175 0.7761,-0.4939 1.27,-0.4939l38.5584 0c0.4939,0 0.9172,0.1764 1.2347,0.4939 0.3528,0.3527 0.5292,0.8114 0.5292,1.27 0,0.4939 -0.1764,0.8819 -0.5292,1.2347zm0 -11.6416c-0.3175,0.3528 -0.7408,0.5292 -1.2347,0.5292l-38.5584 0c-0.4939,0 -0.9173,-0.1764 -1.27,-0.5292 -0.3175,-0.3528 -0.4939,-0.7408 -0.4939,-1.2347 0,-0.4586 0.1764,-0.9172 0.4939,-1.27 0.3527,-0.3175 0.7761,-0.4939 1.27,-0.4939l38.5584 0c0.4939,0 0.9172,0.1764 1.2347,0.4939 0.3528,0.3528 0.5292,0.8114 0.5292,1.27 0,0.4939 -0.1764,0.8819 -0.5292,1.2347zm-41.0631 20.073c0.3527,-0.3175 0.7761,-0.4939 1.27,-0.4939l38.5584 0c0.4939,0 0.9172,0.1764 1.2347,0.4939 0.3528,0.3528 0.5292,0.8114 0.5292,1.27 0,0.4939 -0.1764,0.8819 -0.5292,1.2347 -0.3175,0.3528 -0.7408,0.5292 -1.2347,0.5292l-38.5584 0c-0.4939,0 -0.9173,-0.1764 -1.27,-0.5292 -0.3175,-0.3528 -0.4939,-0.7408 -0.4939,-1.2347 0,-0.4586 0.1764,-0.9172 0.4939,-1.27z"/>
  </g>
 </g>
</svg>
